<mxfile host="app.diagrams.net" agent="Mozilla/5.0 (Windows NT 10.0; Win64; x64) AppleWebKit/537.36 (KHTML, like Gecko) Chrome/138.0.0.0 Safari/537.36" version="28.0.7">
  <diagram name="Page-1" id="OWwP0-ZgldBm6yaf4Mt7">
    <mxGraphModel dx="1042" dy="562" grid="1" gridSize="10" guides="1" tooltips="1" connect="1" arrows="1" fold="1" page="1" pageScale="1" pageWidth="827" pageHeight="1169" math="0" shadow="0">
      <root>
        <mxCell id="0" />
        <mxCell id="1" parent="0" />
        <mxCell id="gDVO2s-9PHBH2988cVMw-3" value="" style="edgeStyle=orthogonalEdgeStyle;rounded=0;orthogonalLoop=1;jettySize=auto;html=1;" edge="1" parent="1" source="gDVO2s-9PHBH2988cVMw-1" target="gDVO2s-9PHBH2988cVMw-2">
          <mxGeometry relative="1" as="geometry" />
        </mxCell>
        <mxCell id="gDVO2s-9PHBH2988cVMw-1" value="Start" style="ellipse;whiteSpace=wrap;html=1;" vertex="1" parent="1">
          <mxGeometry x="310" y="40" width="200" height="80" as="geometry" />
        </mxCell>
        <mxCell id="gDVO2s-9PHBH2988cVMw-5" value="" style="edgeStyle=orthogonalEdgeStyle;rounded=0;orthogonalLoop=1;jettySize=auto;html=1;" edge="1" parent="1" source="gDVO2s-9PHBH2988cVMw-2">
          <mxGeometry relative="1" as="geometry">
            <mxPoint x="410" y="375.5" as="targetPoint" />
          </mxGeometry>
        </mxCell>
        <mxCell id="gDVO2s-9PHBH2988cVMw-2" value="New&lt;div&gt;User?&lt;/div&gt;" style="rhombus;whiteSpace=wrap;html=1;" vertex="1" parent="1">
          <mxGeometry x="320" y="185" width="180" height="105" as="geometry" />
        </mxCell>
        <mxCell id="gDVO2s-9PHBH2988cVMw-7" value="" style="edgeStyle=orthogonalEdgeStyle;rounded=0;orthogonalLoop=1;jettySize=auto;html=1;" edge="1" parent="1" target="gDVO2s-9PHBH2988cVMw-6">
          <mxGeometry relative="1" as="geometry">
            <mxPoint x="410" y="480" as="sourcePoint" />
          </mxGeometry>
        </mxCell>
        <mxCell id="gDVO2s-9PHBH2988cVMw-9" value="" style="edgeStyle=orthogonalEdgeStyle;rounded=0;orthogonalLoop=1;jettySize=auto;html=1;" edge="1" parent="1" source="gDVO2s-9PHBH2988cVMw-6" target="gDVO2s-9PHBH2988cVMw-8">
          <mxGeometry relative="1" as="geometry" />
        </mxCell>
        <mxCell id="gDVO2s-9PHBH2988cVMw-6" value="Face&amp;nbsp;&lt;div&gt;Recognize&lt;/div&gt;" style="rhombus;whiteSpace=wrap;html=1;" vertex="1" parent="1">
          <mxGeometry x="300" y="572.25" width="220" height="117.75" as="geometry" />
        </mxCell>
        <mxCell id="gDVO2s-9PHBH2988cVMw-8" value="Stored in CSV file&lt;div&gt;with Registration&lt;/div&gt;&lt;div&gt;Number &amp;amp; Date&lt;/div&gt;&lt;div&gt;Time of Entry&lt;/div&gt;" style="shape=parallelogram;perimeter=parallelogramPerimeter;whiteSpace=wrap;html=1;fixedSize=1;" vertex="1" parent="1">
          <mxGeometry x="300" y="784.88" width="220" height="95.12" as="geometry" />
        </mxCell>
        <mxCell id="gDVO2s-9PHBH2988cVMw-10" value="Stop" style="ellipse;whiteSpace=wrap;html=1;" vertex="1" parent="1">
          <mxGeometry x="310" y="970" width="200" height="80" as="geometry" />
        </mxCell>
        <mxCell id="gDVO2s-9PHBH2988cVMw-11" value="" style="endArrow=classic;html=1;rounded=0;" edge="1" parent="1">
          <mxGeometry width="50" height="50" relative="1" as="geometry">
            <mxPoint x="409" y="883" as="sourcePoint" />
            <mxPoint x="408.96" y="970" as="targetPoint" />
          </mxGeometry>
        </mxCell>
        <mxCell id="gDVO2s-9PHBH2988cVMw-12" value="Recognize&lt;div&gt;the Face&lt;/div&gt;" style="shape=parallelogram;perimeter=parallelogramPerimeter;whiteSpace=wrap;html=1;fixedSize=1;" vertex="1" parent="1">
          <mxGeometry x="320" y="380" width="180" height="100" as="geometry" />
        </mxCell>
        <mxCell id="gDVO2s-9PHBH2988cVMw-13" value="" style="endArrow=none;html=1;rounded=0;exitX=1;exitY=0.5;exitDx=0;exitDy=0;" edge="1" parent="1" source="gDVO2s-9PHBH2988cVMw-2" target="gDVO2s-9PHBH2988cVMw-14">
          <mxGeometry width="50" height="50" relative="1" as="geometry">
            <mxPoint x="390" y="340" as="sourcePoint" />
            <mxPoint x="760" y="238" as="targetPoint" />
          </mxGeometry>
        </mxCell>
        <mxCell id="gDVO2s-9PHBH2988cVMw-14" value="Give Your&amp;nbsp;&lt;div&gt;Photograph&lt;/div&gt;" style="rounded=0;whiteSpace=wrap;html=1;" vertex="1" parent="1">
          <mxGeometry x="700" y="208" width="190" height="60" as="geometry" />
        </mxCell>
        <mxCell id="gDVO2s-9PHBH2988cVMw-15" value="" style="endArrow=none;html=1;rounded=0;entryX=0.5;entryY=1;entryDx=0;entryDy=0;exitX=0.463;exitY=-0.012;exitDx=0;exitDy=0;exitPerimeter=0;" edge="1" parent="1" source="gDVO2s-9PHBH2988cVMw-17" target="gDVO2s-9PHBH2988cVMw-14">
          <mxGeometry width="50" height="50" relative="1" as="geometry">
            <mxPoint x="795" y="360" as="sourcePoint" />
            <mxPoint x="490" y="290" as="targetPoint" />
          </mxGeometry>
        </mxCell>
        <mxCell id="gDVO2s-9PHBH2988cVMw-16" value="" style="endArrow=classic;html=1;rounded=0;exitX=0;exitY=0.5;exitDx=0;exitDy=0;" edge="1" parent="1" source="gDVO2s-9PHBH2988cVMw-17" target="gDVO2s-9PHBH2988cVMw-12">
          <mxGeometry width="50" height="50" relative="1" as="geometry">
            <mxPoint x="700" y="430" as="sourcePoint" />
            <mxPoint x="510" y="440" as="targetPoint" />
          </mxGeometry>
        </mxCell>
        <mxCell id="gDVO2s-9PHBH2988cVMw-17" value="Store the Face&lt;div&gt;Data in Folder&lt;/div&gt;&lt;div&gt;on your Name&lt;/div&gt;" style="rounded=0;whiteSpace=wrap;html=1;" vertex="1" parent="1">
          <mxGeometry x="707" y="390" width="193" height="80" as="geometry" />
        </mxCell>
        <mxCell id="gDVO2s-9PHBH2988cVMw-20" value="" style="endArrow=classic;html=1;rounded=0;entryX=0.526;entryY=0.033;entryDx=0;entryDy=0;entryPerimeter=0;" edge="1" parent="1" target="gDVO2s-9PHBH2988cVMw-14">
          <mxGeometry width="50" height="50" relative="1" as="geometry">
            <mxPoint x="800" y="150" as="sourcePoint" />
            <mxPoint x="800" y="200" as="targetPoint" />
          </mxGeometry>
        </mxCell>
        <mxCell id="gDVO2s-9PHBH2988cVMw-21" value="" style="endArrow=none;html=1;rounded=0;" edge="1" parent="1">
          <mxGeometry width="50" height="50" relative="1" as="geometry">
            <mxPoint x="440" y="340" as="sourcePoint" />
            <mxPoint x="800" y="150" as="targetPoint" />
          </mxGeometry>
        </mxCell>
      </root>
    </mxGraphModel>
  </diagram>
</mxfile>
